PathFileType	4	(x/y/z)	S08_M20_T15
DataRate	CameraRate	NumFrames	NumMarkers	Units	OrigDataRate	OrigDataStartFrame	OrigNumFrames
240	240	9	51	mm	240	446	509
Frame#	Time	Sternum			R.Acromium			L.Acromium			Top.Head			R.ASIS			L.ASIS			R.PSIS			L.PSIS			R.Great.Tro			L.Great.Tro			R.Iliac.Crest			L.Iliac.Crest			V.Sacral			R.Thigh.Upper.Post			R.Thigh.Lower.Ant			R.Thigh.Lower.Post			R.Thigh.Upper.Ant			R.Knee.Lat			R.Knee.Med			R.Shank.Upper.Post			R.Shank.Lower.Ant			R.Shank.Lower.Post			R.Shank.Upper.Ant			R.Ankle.Lat			R.Ankle.Med			R.Heel.Upper			R.Heel.Med			R.Heel.Lat			R.Toe.Lat			R.Toe.Med			R.Toe.Tip			L.Thigh.Upper.Post			L.Thigh.Lower.Ant			L.Thigh.Lower.Post			L.Thigh.Upper.Ant			L.Knee.Lat			L.Knee.Med			L.Shank.Upper.Post			L.Shank.Lower.Ant			L.Shank.Lower.Post			L.Shank.Upper.Ant			L.Ankle.Lat			L.Ankle.Med			L.Heel.Upper			L.Heel.Med			L.Heel.Lat			L.Toe.Lat			L.Toe.Med			L.Toe.Tip			Cervical.Spine			Back			
		X1	Y1	Z1	X2	Y2	Z2	X3	Y3	Z3	X4	Y4	Z4	X5	Y5	Z5	X6	Y6	Z6	X7	Y7	Z7	X8	Y8	Z8	X9	Y9	Z9	X10	Y10	Z10	X11	Y11	Z11	X12	Y12	Z12	X13	Y13	Z13	X14	Y14	Z14	X15	Y15	Z15	X16	Y16	Z16	X17	Y17	Z17	X18	Y18	Z18	X19	Y19	Z19	X20	Y20	Z20	X21	Y21	Z21	X22	Y22	Z22	X23	Y23	Z23	X24	Y24	Z24	X25	Y25	Z25	X26	Y26	Z26	X27	Y27	Z27	X28	Y28	Z28	X29	Y29	Z29	X30	Y30	Z30	X31	Y31	Z31	X32	Y32	Z32	X33	Y33	Z33	X34	Y34	Z34	X35	Y35	Z35	X36	Y36	Z36	X37	Y37	Z37	X38	Y38	Z38	X39	Y39	Z39	X40	Y40	Z40	X41	Y41	Z41	X42	Y42	Z42	X43	Y43	Z43	X44	Y44	Z44	X45	Y45	Z45	X46	Y46	Z46	X47	Y47	Z47	X48	Y48	Z48	X49	Y49	Z49	X50	Y50	Z50	X51	Y51	Z51	

446	1.8542	711.92	1212	303.92	602.61	1445.1	484.46	585.42	1479.5	150.59	615.08	1764.6	334.33	709.08	1002.8	413.37	692.79	1002.1	180.34	503.15	1022.7	355.92	500.53	1030.1	262.79	658.33	892.62	490.88	588.07	902.72	120.54	614.71	1067	468.62	594.99	1084.7	157.25	485.29	985.89	307.36	725.14	697.68	477.5	835.68	643.94	439.23	769.35	620.8	456	795.84	728.09	460.95	851.23	549	433.82	817.54	534.88	309.25	861.86	358.43	446.97	941.39	323.41	421.61	890.73	286.55	439.17	912.73	395.4	430.47	957.54	128.46	406.32	975.59	156.43	325.31	931.34	73.065	355.69	954.31	56.404	327.23	948.55	52.636	389.12	NaN	NaN	NaN	1115.4	147.32	315.07	1162.3	192.9	362.05	523.99	706.59	144.36	588.45	601.72	170.95	522.49	617.51	164.62	593.69	687.33	144.41	509.87	513.37	190.18	515.79	517.13	315.41	401.78	351.65	199.24	445.12	251.57	226.29	380.53	282.86	220.08	460.93	323.96	206.34	358.71	110.08	245.97	383.66	113.35	331.26	301.48	85.615	299.31	313.73	49.636	328.09	305.08	58.811	264.73	477.72	39.161	221.16	503.35	36.714	335.65	565.96	48.167	283.33	528.09	1507	313.33	478.63	1222	318.89
447	1.8583	717.13	1211.3	303.99	607.68	1444.2	484.61	590.62	1478.7	150.73	620.11	1763.8	334.56	714.41	1002	413.28	697.69	1001.2	180.27	508.4	1022	356.21	505.62	1029.4	263.09	663.76	891.83	490.92	592.57	902.1	120.63	620.16	1066.2	468.71	599.91	1083.9	157.3	490.4	985.21	307.7	730.12	696.78	477.52	840.53	642.86	439.04	774.19	619.82	455.95	800.85	727.07	460.84	856.11	548.1	433.66	822.18	533.86	309.12	869.15	357.61	446.37	949.2	323.78	420.82	899.03	286.17	438.35	919.49	395.35	429.96	968.35	129.06	404.91	985.92	157.61	323.97	943.02	73.4	354.11	966.2	57.225	325.56	960.55	53.133	387.41	NaN	NaN	NaN	1126	150.64	313.63	1172.2	196.75	360.81	527.56	706.37	144.43	591.57	601.21	170.88	525.69	617.3	164.67	597.18	686.75	144.37	512.57	513.2	190.22	518.72	516.87	315.46	403.58	352.1	199.32	446.35	251.75	226.32	381.93	283.42	220.14	462.57	324.05	206.39	359.18	110.7	246.01	384.18	113.84	331.31	301.86	86.399	299.4	313.94	50.393	328.16	305.32	59.593	264.79	477.81	39.163	221.16	503.48	36.689	335.63	566.12	47.902	283.32	533.23	1506.2	313.45	483.81	1221.2	318.99
448	1.8625	722.37	1210.5	304.05	612.78	1443.3	484.77	595.83	1477.9	150.87	625.14	1763	334.8	719.79	1001.2	413.18	702.61	1000.3	180.19	513.68	1021.3	356.51	510.74	1028.7	263.41	669.23	891.03	490.95	597.09	901.47	120.73	625.64	1065.5	468.81	604.85	1083.1	157.36	495.52	984.54	308.07	735.14	695.88	477.54	845.41	641.79	438.83	779.07	618.84	455.9	805.89	726.06	460.72	861.01	547.2	433.52	826.84	532.86	308.98	876.33	356.79	445.76	956.86	324.11	420.05	907.16	285.79	437.53	926.17	395.27	429.48	978.86	129.65	403.51	995.98	158.77	322.65	954.37	73.748	352.53	977.76	58.055	323.89	972.21	53.637	385.7	NaN	NaN	NaN	1136.2	153.85	312.26	1181.7	200.44	359.64	531.18	706.16	144.5	594.74	600.7	170.81	528.93	617.1	164.74	600.71	686.18	144.33	515.34	513.02	190.26	521.72	516.61	315.5	405.43	352.56	199.39	447.62	251.95	226.35	383.38	284	220.19	464.26	324.16	206.44	359.68	111.34	246.05	384.72	114.37	331.34	302.27	87.235	299.47	314.16	51.204	328.22	305.58	60.424	264.84	477.9	39.167	221.16	503.61	36.671	335.6	566.28	47.633	283.3	538.39	1505.4	313.59	489.03	1220.4	319.1
449	1.8667	727.63	1209.7	304.13	617.9	1442.4	484.93	601.07	1477.2	151.02	630.18	1762.2	335.06	725.19	1000.4	413.07	707.55	999.42	180.1	518.99	1020.5	356.84	515.88	1028	263.74	674.74	890.24	490.99	601.63	900.84	120.83	631.16	1064.7	468.9	609.78	1082.3	157.42	500.67	983.85	308.45	740.21	694.99	477.56	850.33	640.73	438.62	784	617.87	455.84	810.97	725.06	460.59	865.94	546.3	433.38	831.55	531.87	308.86	883.4	355.98	445.15	964.37	324.39	419.3	915.11	285.41	436.71	932.75	395.15	429.01	989.05	130.2	402.11	1005.8	159.89	321.35	965.39	74.098	350.96	988.97	58.876	322.23	983.5	54.133	383.99	NaN	NaN	NaN	1146.1	156.91	310.95	1191	203.93	358.56	534.86	705.95	144.6	597.97	600.2	170.75	532.22	616.9	164.81	604.28	685.61	144.3	518.17	512.85	190.3	524.78	516.35	315.55	407.35	353.04	199.46	448.93	252.16	226.37	384.88	284.61	220.24	466.01	324.28	206.49	360.2	112.03	246.08	385.28	114.93	331.37	302.69	88.125	299.53	314.39	52.07	328.26	305.85	61.305	264.88	478	39.174	221.16	503.74	36.659	335.58	566.44	47.361	283.28	543.56	1504.6	313.73	494.26	1219.6	319.22
450	1.8708	732.93	1208.9	304.2	623.04	1441.5	485.1	606.33	1476.4	151.17	635.23	1761.4	335.32	730.62	999.53	412.96	712.5	998.55	180.02	524.32	1019.8	357.17	521.05	1027.3	264.09	680.31	889.45	491.03	606.19	900.21	120.95	636.71	1063.9	469.01	614.73	1081.5	157.48	505.84	983.17	308.86	745.32	694.12	477.58	855.31	639.69	438.4	788.98	616.92	455.78	816.1	724.08	460.45	870.89	545.4	433.25	836.29	530.9	308.73	890.35	355.18	444.54	971.72	324.62	418.59	922.89	285.03	435.9	939.24	394.99	428.56	998.92	130.73	400.73	1015.3	160.94	320.07	976.06	74.433	349.4	999.82	59.671	320.59	994.41	54.606	382.3	NaN	NaN	NaN	1155.7	159.8	309.71	1200	207.21	357.55	538.58	705.75	144.72	601.24	599.7	170.68	535.56	616.7	164.88	607.9	685.05	144.27	521.07	512.69	190.35	527.92	516.08	315.6	409.32	353.54	199.52	450.29	252.39	226.39	386.44	285.24	220.27	467.81	324.41	206.53	360.76	112.74	246.1	385.87	115.51	331.38	303.14	89.07	299.57	314.63	52.991	328.29	306.14	62.236	264.91	478.11	39.182	221.16	503.87	36.656	335.56	566.61	47.088	283.26	548.76	1503.7	313.88	499.52	1218.7	319.35
451	1.875	738.25	1208.2	304.29	628.21	1440.7	485.28	611.61	1475.6	151.32	640.28	1760.5	335.59	736.09	998.72	412.84	717.47	997.69	179.92	529.68	1019.1	357.52	526.24	1026.5	264.45	685.92	888.67	491.07	610.78	899.58	121.07	642.29	1063.2	469.11	619.69	1080.7	157.56	511.04	982.48	309.28	750.49	693.26	477.61	860.36	638.68	438.18	794.02	615.99	455.72	821.28	723.13	460.3	875.89	544.51	433.11	841.09	529.96	308.6	897.18	354.38	443.91	978.93	324.79	417.9	930.48	284.63	435.09	945.66	394.79	428.13	1008.5	131.2	399.36	1024.5	161.93	318.83	986.36	74.742	347.85	1010.3	60.423	318.96	1004.9	55.038	380.62	NaN	NaN	NaN	1164.9	162.51	308.53	1208.7	210.26	356.62	542.37	705.54	144.86	604.57	599.21	170.61	538.95	616.51	164.97	611.57	684.5	144.24	524.03	512.52	190.41	531.13	515.8	315.66	411.37	354.05	199.59	451.7	252.65	226.4	388.05	285.9	220.3	469.67	324.56	206.57	361.33	113.49	246.1	386.48	116.13	331.38	303.62	90.073	299.6	314.89	53.971	328.31	306.46	63.219	264.93	478.22	39.194	221.16	504.01	36.661	335.53	566.79	46.814	283.24	553.98	1502.9	314.04	504.8	1217.9	319.49
452	1.8792	743.6	1207.4	304.37	633.4	1439.8	485.46	616.91	1474.9	151.48	645.34	1759.7	335.87	741.59	997.91	412.72	722.47	996.85	179.83	535.06	1018.3	357.88	531.45	1025.8	264.82	691.57	887.9	491.12	615.39	898.94	121.2	647.91	1062.4	469.22	624.67	1080	157.64	516.25	981.79	309.73	755.72	692.43	477.63	865.47	637.71	437.94	799.14	615.08	455.66	826.52	722.2	460.13	880.93	543.64	432.97	845.96	529.05	308.47	903.9	353.58	443.28	985.98	324.9	417.23	937.9	284.21	434.28	951.99	394.54	427.7	1017.6	131.6	398.02	1033.4	162.83	317.61	996.28	75.009	346.32	1020.3	61.115	317.37	1015	55.416	378.97	NaN	NaN	NaN	1173.9	165.01	307.41	1217	213.05	355.76	546.2	705.34	145.03	607.96	598.72	170.54	542.4	616.32	165.06	615.3	683.96	144.22	527.06	512.36	190.46	534.42	515.52	315.72	413.47	354.59	199.64	453.15	252.92	226.4	389.71	286.58	220.32	471.59	324.73	206.61	361.94	114.28	246.1	387.12	116.78	331.36	304.11	91.133	299.6	315.16	55.01	328.32	306.79	64.255	264.93	478.34	39.208	221.15	504.15	36.678	335.51	566.97	46.54	283.22	559.22	1502.1	314.2	510.1	1217.1	319.64
453	1.8833	748.97	1206.6	304.46	638.62	1438.9	485.65	622.24	1474.1	151.64	650.42	1758.9	336.15	747.11	997.12	412.59	727.48	996.02	179.74	540.47	1017.6	358.24	536.69	1025.1	265.21	697.27	887.14	491.18	620.03	898.31	121.34	653.55	1061.7	469.33	629.67	1079.2	157.73	521.49	981.1	310.19	761.02	691.62	477.66	870.65	636.78	437.69	804.33	614.21	455.59	831.82	721.3	459.95	886.02	542.79	432.82	850.89	528.18	308.32	910.51	352.79	442.64	992.88	324.94	416.58	945.12	283.78	433.47	958.25	394.25	427.28	1026.5	131.93	396.71	1042	163.63	316.42	1005.8	75.222	344.83	1030	61.729	315.81	1024.7	55.725	377.36	NaN	NaN	NaN	1182.5	167.28	306.34	1225.1	215.57	354.97	550.1	705.13	145.21	611.41	598.24	170.47	545.9	616.13	165.16	619.08	683.43	144.2	530.17	512.2	190.52	537.78	515.23	315.78	415.65	355.15	199.69	454.66	253.21	226.4	391.43	287.29	220.33	473.57	324.9	206.65	362.58	115.11	246.08	387.79	117.47	331.33	304.64	92.254	299.59	315.45	56.11	328.31	307.14	65.345	264.91	478.46	39.225	221.14	504.3	36.705	335.5	567.15	46.268	283.21	564.49	1501.4	314.37	515.43	1216.2	319.79
454	1.8875	754.37	1205.9	304.55	643.86	1438.1	485.85	627.59	1473.3	151.82	655.5	1758.1	336.45	752.67	996.33	412.47	732.53	995.2	179.65	545.91	1016.9	358.62	541.95	1024.3	265.6	703.01	886.4	491.24	624.7	897.68	121.5	659.22	1060.9	469.45	634.69	1078.4	157.83	526.75	980.41	310.66	766.4	690.84	477.69	875.92	635.9	437.43	809.62	613.38	455.51	837.17	720.45	459.76	891.18	541.97	432.66	855.9	527.35	308.17	917.01	352.01	442	999.63	324.9	415.96	952.17	283.32	432.68	964.43	393.92	426.86	1034.9	132.18	395.43	1050.2	164.31	315.26	1014.9	75.367	343.37	1039.2	62.248	314.29	1033.9	55.951	375.78	NaN	NaN	NaN	1190.7	169.3	305.34	1232.9	217.79	354.24	554.06	704.93	145.41	614.92	597.76	170.4	549.45	615.94	165.27	622.92	682.9	144.19	533.35	512.04	190.59	541.23	514.94	315.85	417.9	355.73	199.74	456.21	253.53	226.39	393.21	288.03	220.33	475.62	325.1	206.68	363.25	115.97	246.05	388.49	118.19	331.28	305.19	93.436	299.56	315.76	57.272	328.3	307.51	66.491	264.88	478.59	39.245	221.13	504.45	36.746	335.48	567.33	45.999	283.19	569.77	1500.6	314.54	520.78	1215.4	319.96
